<?xml version="1.0" standalone="no"?>
<!DOCTYPE svg PUBLIC "-//W3C//DTD SVG 20010904//EN"
 "http://www.w3.org/TR/2001/REC-SVG-20010904/DTD/svg10.dtd">
<svg version="1.0" xmlns="http://www.w3.org/2000/svg"
 width="700.000000pt" height="700.000000pt" viewBox="0 0 700.000000 700.000000"
 preserveAspectRatio="xMidYMid meet">
<metadata>
Created by potrace 1.11, written by Peter Selinger 2001-2013
</metadata>
<g transform="translate(0.000000,700.000000) scale(0.100000,-0.100000)"
fill="#000000" stroke="none">
<path d="M3299 6996 c-2 -2 -42 -6 -89 -10 -166 -11 -349 -40 -520 -82 -58
-14 -112 -27 -120 -29 -41 -9 -287 -92 -373 -126 -554 -220 -1065 -603 -1441
-1079 -246 -312 -427 -639 -556 -1005 -28 -79 -86 -269 -95 -309 -2 -12 -15
-73 -29 -136 -13 -63 -29 -151 -36 -195 -6 -44 -13 -93 -15 -110 -26 -181 -27
-683 -1 -820 2 -11 7 -45 10 -76 4 -31 9 -67 11 -80 3 -13 7 -37 10 -54 15
-102 78 -353 125 -493 88 -266 204 -507 383 -797 65 -104 221 -308 331 -429
439 -488 981 -832 1608 -1020 65 -20 128 -37 140 -40 13 -2 41 -9 63 -15 35
-9 111 -24 230 -46 17 -3 57 -8 90 -11 33 -3 62 -7 66 -9 15 -10 233 -20 419
-20 258 0 330 6 575 45 380 62 774 200 1120 393 184 103 476 309 605 427 128
118 236 228 350 355 161 180 358 482 487 745 114 232 225 549 269 765 38 189
60 332 72 470 14 171 6 626 -13 720 -2 11 -7 40 -10 65 -3 25 -7 56 -10 70 -6
29 -13 70 -21 120 -10 59 -81 330 -109 415 -240 715 -685 1318 -1295 1755
-218 156 -479 299 -718 395 -100 40 -234 88 -282 100 -8 3 -64 18 -125 35
-176 48 -297 70 -575 105 -52 7 -525 16 -531 11z m516 -90 c22 -3 58 -8 80
-10 22 -3 60 -8 85 -11 25 -3 68 -10 95 -15 28 -5 64 -11 80 -14 56 -8 240
-55 357 -90 430 -131 868 -373 1213 -670 72 -62 299 -286 346 -342 92 -108
174 -213 232 -296 278 -399 473 -866 563 -1348 7 -38 7 -38 18 -125 4 -33 10
-71 12 -85 19 -119 25 -523 10 -705 -4 -55 -9 -102 -11 -105 -1 -3 -6 -30 -9
-61 -4 -31 -9 -67 -11 -80 -3 -13 -10 -52 -15 -86 -24 -147 -127 -501 -185
-638 -166 -388 -362 -706 -605 -980 -49 -56 -266 -272 -320 -320 -129 -114
-375 -292 -505 -366 -338 -192 -613 -303 -950 -384 -77 -19 -162 -37 -190 -41
-27 -5 -52 -9 -55 -9 -3 -1 -32 -5 -65 -9 -33 -4 -71 -9 -83 -11 -165 -26
-649 -26 -802 -1 -14 3 -50 7 -80 10 -96 11 -343 65 -483 106 -1072 313 -1928
1139 -2281 2201 -88 264 -132 480 -163 789 -14 146 -7 580 11 690 3 14 7 48
11 75 28 240 133 627 225 830 5 11 27 61 49 111 116 265 304 561 516 810 53
63 271 283 345 349 95 84 230 186 362 274 75 50 139 91 143 91 4 0 19 8 33 19
36 24 240 129 322 165 36 16 83 36 105 46 125 55 483 162 615 184 160 27 299
46 375 52 50 3 91 8 93 9 5 5 473 -4 517 -9z"/>
<path d="M2287 4632 c-2 -4 -3 -527 -3 -1162 l1 -1155 608 -3 607 -2 0 42 0
43 -565 -3 c-450 -2 -565 0 -566 10 -1 7 -2 513 -3 1123 l-1 1110 -37 2 c-21
1 -39 -1 -41 -5z"/>
<path d="M4022 4064 c-312 -315 -568 -578 -570 -583 -2 -6 8 -21 21 -35 l24
-24 346 346 c190 191 436 439 546 551 l201 204 2 -1104 3 -1103 28 1 c15 1 32
1 37 2 7 1 10 395 10 1161 l0 1160 -40 -2 c-40 -1 -53 -14 -608 -574z"/>
</g>
</svg>
